<svg width="60" height="60" viewBox="0 0 60 60" fill="none" xmlns="http://www.w3.org/2000/svg">
<path d="M60 30C60 46.5685 46.5685 60 30 60C13.4315 60 0 46.5685 0 30C0 13.4315 13.4315 0 30 0C46.5685 0 60 13.4315 60 30Z" fill="#6D8434"/>
<path d="M50.5248 39.1172L50.0883 40.2992L42.0374 37.3327L42.4739 36.1507L43.1383 36.3955L43.1466 36.373C42.8647 35.9239 42.6335 35.1992 42.9619 34.3099C43.5065 32.8353 45.0583 32.1665 46.9499 32.8636C48.8416 33.5606 49.5869 35.0757 49.0423 36.5503C48.7138 37.4396 48.0894 37.849 47.538 37.9911L47.5297 38.0136L50.5248 39.1172ZM43.8554 34.8694C43.4979 35.8374 44.077 36.7286 45.3494 37.1975C46.633 37.6704 47.6416 37.3643 47.9991 36.3962C48.3816 35.3605 47.6394 34.4604 46.5134 34.0455C45.3874 33.6306 44.2379 33.8337 43.8554 34.8694Z" fill="#FAFAFA"/>
<path d="M47.049 42.2421C47.2548 41.9615 47.6615 41.8128 48.0103 42.0677C48.359 42.3226 48.3302 42.7475 48.1244 43.0281C47.9045 43.3281 47.5146 43.4742 47.1658 43.2193C46.817 42.9644 46.8291 42.5421 47.049 42.2421ZM46.5848 41.13L45.8397 42.1461L40.889 38.5279L41.6341 37.5118L46.5848 41.13Z" fill="#FAFAFA"/>
<path d="M40.928 43.6924C39.8889 44.2058 38.7834 44.7895 37.8507 43.661C37.1015 42.7546 37.4134 41.5497 38.5623 40.604C40.0909 39.3456 41.3374 39.5163 42.2093 40.4772L41.2643 41.2551C40.7975 40.7845 40.2159 40.5328 39.2153 41.3565C38.539 41.9132 38.527 42.4826 38.7716 42.7786C39.2609 43.3706 39.8643 42.9516 40.6967 42.5461C41.5924 42.1041 42.7338 41.4132 43.6206 42.4861C44.2628 43.2631 44.0894 44.4472 42.9035 45.4234C41.6158 46.4835 40.4309 46.2932 39.6857 45.5233L40.6307 44.7454C41.0013 45.062 41.5001 45.2887 42.2598 44.6633C42.8434 44.1828 42.975 43.7015 42.6997 43.3686C42.3022 42.8876 41.7435 43.2853 40.928 43.6924Z" fill="#FAFAFA"/>
<path d="M34.4065 47.1788C34.6535 47.7539 35.2728 48.342 36.2954 47.9947C37.4658 47.5972 37.6245 46.4281 37.2523 45.3378C36.88 44.2476 36.0502 43.4142 34.8685 43.8155C33.8459 44.1628 33.7113 44.9943 33.8869 45.657L32.6938 46.0622C32.3271 44.6913 33.0238 43.3521 34.535 42.8389C36.2735 42.2485 37.8249 43.1157 38.4453 44.9327C39.0657 46.7497 38.3674 48.3809 36.6402 48.9674C35.129 49.4807 33.8109 48.8511 33.2134 47.5839L34.4065 47.1788Z" fill="#FAFAFA"/>
<path d="M29.2619 43.5846C31.1783 43.7018 32.2594 45.1023 32.1437 47.0068C32.028 48.9113 30.7854 50.1698 28.869 50.0527C26.9526 49.9355 25.8715 48.535 25.9872 46.6305C26.1029 44.726 27.3454 43.4674 29.2619 43.5846ZM29.1993 44.6147C28.0015 44.5415 27.3212 45.4497 27.2448 46.7073C27.1677 47.977 27.7338 48.9494 28.9316 49.0226C30.1293 49.0958 30.8089 48.1996 30.886 46.9299C30.9624 45.6723 30.3971 44.6879 29.1993 44.6147Z" fill="#FAFAFA"/>
<path d="M20.1945 47.3901L19.0609 46.8401L21.7436 41.3261L22.8772 41.8761L22.5307 42.5883L22.5523 42.5987C23.0538 42.3085 23.836 42.1545 24.7861 42.6155C25.8117 43.1131 26.3327 44.0995 25.7185 45.362L23.8653 49.1711L22.7209 48.6158L24.4166 45.1304C24.7788 44.3859 24.6967 43.7592 23.9194 43.382C23.0448 42.9578 22.2262 43.2141 21.8272 44.0342L20.1945 47.3901Z" fill="#FAFAFA"/>
<path d="M14.6871 43.0438C13.9262 42.1948 13.8179 41.0851 14.8653 40.1501L18.0253 37.3291L18.8743 38.2763L15.9828 40.8576C15.3651 41.409 15.2035 42.0198 15.7801 42.6632C16.4288 43.387 17.2839 43.4602 17.9643 42.8528L20.7483 40.3675L21.5892 41.3058L17.0148 45.3894L16.1739 44.4511L16.7647 43.9237L16.7487 43.9058C16.1744 43.9842 15.3918 43.8302 14.6871 43.0438Z" fill="#FAFAFA"/>
<path d="M12.0886 36.3297L12.5634 37.3793L15.5945 36.0149C16.2291 35.7292 16.1673 35.3886 15.7872 34.6648L16.7282 34.2412C16.8868 34.4462 17.0334 34.6829 17.1719 34.989C17.5873 35.9074 17.399 36.5975 16.2172 37.1295L13.0877 38.5383L13.4536 39.3474L12.5126 39.771L12.1466 38.9619L10.3849 39.7549L9.86064 38.596L11.6224 37.803L11.1476 36.7533L12.0886 36.3297Z" fill="#FAFAFA"/>
<path d="M8.42603 23.7142L8.69989 22.4843L17.0752 24.3473L16.8013 25.5771L16.1102 25.4234L16.105 25.4468C16.4446 25.8543 16.771 26.5416 16.5649 27.4669C16.2233 29.0013 14.7755 29.8717 12.8076 29.434C10.8397 28.9963 9.89786 27.5943 10.2395 26.0599C10.4456 25.1346 11.0094 24.6453 11.5367 24.4307L11.5419 24.4073L8.42603 23.7142ZM15.6045 27.032C15.8288 26.0247 15.1354 25.2189 13.8117 24.9244C12.4764 24.6274 11.5182 25.0658 11.2939 26.0731C11.0539 27.1508 11.9101 27.9436 13.0814 28.2041C14.2528 28.4647 15.3646 28.1096 15.6045 27.032Z" fill="#FAFAFA"/>
<path d="M11.4424 20.1526C11.2761 20.4583 10.8931 20.6601 10.5133 20.4542C10.1336 20.2482 10.1052 19.8233 10.2714 19.5176C10.4492 19.1908 10.8159 18.9938 11.1956 19.1997C11.5754 19.4057 11.6201 19.8258 11.4424 20.1526ZM12.0514 21.1927L12.6534 20.0858L18.0438 23.0091L17.4418 24.1159L12.0514 21.1927Z" fill="#FAFAFA"/>
<path d="M17.3268 17.8758C18.2897 17.2307 19.3092 16.5073 20.3815 17.504C21.2429 18.3046 21.0915 19.54 20.0765 20.6281C18.7258 22.0759 17.4678 22.0699 16.4776 21.2314L17.3126 20.3364C17.8369 20.7418 18.4465 20.9152 19.3305 19.9676C19.9281 19.327 19.8654 18.7609 19.5842 18.4995C19.0216 17.9766 18.4783 18.471 17.7062 18.9821C16.8762 19.5376 15.8351 20.3721 14.8155 19.4244C14.0772 18.7382 14.094 17.5415 15.1418 16.4183C16.2796 15.1986 17.4791 15.2322 18.3186 15.8979L17.4837 16.7929C17.0748 16.5276 16.5507 16.3681 15.8795 17.0876C15.3638 17.6404 15.2964 18.1348 15.6129 18.4289C16.0699 18.8538 16.5717 18.3863 17.3268 17.8758Z" fill="#FAFAFA"/>
<path d="M23.2429 13.5934C22.9201 13.0571 22.2268 12.5583 21.2606 13.0409C20.1549 13.5931 20.1561 14.7729 20.6727 15.8025C21.1894 16.8322 22.1246 17.5455 23.2411 16.9878C24.2073 16.5053 24.2279 15.6634 23.9641 15.0306L25.0913 14.4676C25.6405 15.7761 25.1318 17.1971 23.704 17.9102C22.0614 18.7306 20.4066 18.0816 19.5455 16.3655C18.6844 14.6494 19.1552 12.9388 20.787 12.1238C22.2149 11.4107 23.6063 11.8559 24.3702 13.0304L23.2429 13.5934Z" fill="#FAFAFA"/>
<path d="M28.8223 16.4353C26.9074 16.5748 25.6485 15.3309 25.5083 13.4281C25.368 11.5252 26.431 10.1123 28.3459 9.97288C30.2609 9.83344 31.5197 11.0773 31.66 12.9801C31.8002 14.883 30.7372 16.2959 28.8223 16.4353ZM28.7464 15.4061C29.9433 15.319 30.4959 14.3282 30.4033 13.0716C30.3098 11.8031 29.6186 10.9149 28.4218 11.0021C27.225 11.0892 26.6714 12.068 26.7649 13.3366C26.8576 14.5932 27.5496 15.4933 28.7464 15.4061Z" fill="#FAFAFA"/>
<path d="M37.349 11.4476L38.5455 11.8424L36.6209 17.6645L35.4243 17.2697L35.6729 16.5178L35.6501 16.5103C35.1917 16.8645 34.4371 17.121 33.4343 16.7901C32.3517 16.433 31.7041 15.5244 32.1448 14.1913L33.4743 10.1694L34.6823 10.5679L33.4657 14.248C33.2059 15.0342 33.3706 15.6445 34.1911 15.9152C35.1142 16.2197 35.8913 15.8569 36.1776 14.991L37.349 11.4476Z" fill="#FAFAFA"/>
<path d="M43.3935 15.008C44.2591 15.7498 44.5122 16.8358 43.5967 17.9003L40.8346 21.1119L39.8688 20.2842L42.3961 17.3455C42.936 16.7178 43.016 16.091 42.36 15.5288C41.6219 14.8963 40.7647 14.9361 40.17 15.6275L37.7366 18.457L36.7798 17.6371L40.7782 12.988L41.735 13.8079L41.2185 14.4084L41.2368 14.424C41.7958 14.2709 42.5917 14.3208 43.3935 15.008Z" fill="#FAFAFA"/>
<path d="M46.8445 21.2669L46.2327 20.2907L43.4127 22.0505C42.8222 22.4189 42.9294 22.7481 43.4035 23.4141L42.5279 23.9605C42.3432 23.7787 42.1661 23.5639 41.9877 23.2792C41.4523 22.4251 41.5461 21.7159 42.6455 21.0298L45.5572 19.2129L45.0856 18.4605L45.9611 17.9142L46.4327 18.6666L48.0717 17.6438L48.7472 18.7216L47.1082 19.7444L47.72 20.7205L46.8445 21.2669Z" fill="#FAFAFA"/>
<path d="M32.9167 27.6667C27.6667 28.8333 26.4417 32.4325 25.2283 35.4483L26.3308 35.8333L26.885 34.4917C27.165 34.5908 27.4567 34.6667 27.6667 34.6667C34.0833 34.6667 35.8333 24.75 35.8333 24.75C35.25 25.9167 31.1667 26.0625 28.25 26.6458C25.3333 27.2292 24.1667 29.7083 24.1667 30.875C24.1667 32.0417 25.1875 33.0625 25.1875 33.0625C27.0833 27.6667 32.9167 27.6667 32.9167 27.6667Z" fill="#FAFAFA"/>
</svg>
