<svg width="28" height="28" viewBox="0 0 28 28" fill="none" xmlns="http://www.w3.org/2000/svg">
<g opacity="0.8">
<path d="M17.08 4.06011C17.29 4.06011 17.5 4.06011 17.92 4.06011V7.21011C17.71 7.21011 17.29 7.21011 16.87 7.21011C16.45 7.21011 16.03 7.21011 15.82 7.42011C15.61 7.63011 15.61 7.84011 15.61 8.33011C15.61 8.75011 15.61 9.03011 15.61 9.45011H17.92V12.1101H15.61V23.6601H12.04V12.0401H10.15V9.38011H12.04V8.47011C12.04 6.93011 12.25 5.81011 12.67 5.32011C13.3 4.41011 14.56 3.99011 16.45 3.99011C16.66 4.06011 16.87 4.06011 17.08 4.06011Z" fill="#E8E8E2"/>
</g>
</svg>
