<svg width="32" height="32" viewBox="0 0 32 32" fill="none" xmlns="http://www.w3.org/2000/svg">
<path d="M32 16C32 24.8366 24.8366 32 16 32C7.16344 32 0 24.8366 0 16C0 7.16344 7.16344 0 16 0C24.8366 0 32 7.16344 32 16Z" fill="#6D8434"/>
<path d="M16.93 8.89C16.6405 8.45011 16.2514 8.08467 15.7942 7.82333C14.5375 7.1025 12.9183 7.22917 11.4242 8.06583C8.65 9.62 6.83333 12.5417 6.83333 16C6.83333 20.6167 10.175 24.3442 14.5392 25.05C15.0158 25.1267 15.5033 25.1667 16 25.1667C17.211 25.1709 18.4107 24.9344 19.5294 24.4708C20.6481 24.0072 21.6635 23.3258 22.5165 22.4662C23.3695 21.6067 24.043 20.5861 24.498 19.4638C24.953 18.3416 25.1803 17.1401 25.1667 15.9292C25.1475 14.3192 24.5017 12.3433 23.4808 10.7642C22.4642 9.19083 20.9008 7.7575 18.9583 7.77583C18.01 7.7775 17.3625 8.29833 16.93 8.89ZM22.4758 12.3442C22.1278 12.2882 21.7738 12.2789 21.4233 12.3167L20.4567 10.6917L19.025 11.5417L19.7683 12.7917C19.4573 12.938 19.1603 13.1124 18.8808 13.3125C18.8759 13.2964 18.8709 13.2803 18.8658 13.2642C18.6433 12.5892 18.2133 12.035 17.64 11.4842L17.6433 11.4675C17.7008 11.1983 17.7925 10.8508 17.93 10.5133C18.2408 9.75 18.6017 9.44083 18.9633 9.44083H18.9725C20.0483 9.42917 21.1692 10.255 22.0817 11.6667C22.2233 11.8858 22.355 12.1117 22.4767 12.3433L22.4758 12.3442ZM17.3417 14.8417C17.0667 14.8483 16.7842 14.8792 16.5083 14.9392C16.2834 14.5626 15.9819 14.2376 15.6233 13.985C14.965 13.5225 14.0633 13.2933 13.0883 13.6575C12.999 13.606 12.909 13.5558 12.8183 13.5067L15.5125 10.8658L14.3458 9.67583L11.15 12.8083C10.475 12.6125 9.84417 12.5425 9.2775 12.6208C9.92961 11.3118 10.9623 10.2306 12.24 9.51917C13.3767 8.8825 14.3542 8.9175 14.9658 9.26833C15.5492 9.6025 16.0333 10.3608 15.9117 11.7158L15.8742 12.135L16.1892 12.4142C16.8742 13.02 17.1592 13.4117 17.2825 13.7858C17.3692 14.0483 17.3975 14.3658 17.3417 14.8417ZM15 15.6792C14.2883 16.275 13.8108 17.1108 13.5333 18.0142L11.055 15.2933L9.8225 16.4167L13.2292 20.1567C13.225 21.15 13.3525 22.1667 13.5375 23.0858C12.0626 22.5794 10.7834 21.6236 9.87984 20.3526C8.97627 19.0816 8.49371 17.5594 8.5 16C8.5 15.1333 8.74083 14.6608 9.02417 14.4542C9.29167 14.2575 9.87917 14.0967 11.0825 14.5408C11.5175 14.7017 12.0208 14.9483 12.5967 15.3067L13.015 15.5667L13.445 15.325C13.9642 15.0333 14.3608 15.1367 14.665 15.35C14.7983 15.4433 14.9125 15.56 15 15.6792ZM16.4708 23.485L22.5475 16.7875L21.3133 15.6675L18.87 18.36L18.8758 17.515L17.2092 17.5033L17.19 20.2117L15.1208 22.4925C14.9642 21.6417 14.8708 20.7275 14.9008 19.87C14.9542 18.4075 15.5383 17.2058 16.4025 16.73C16.7608 16.5325 17.3933 16.455 17.8933 16.5433L18.635 16.6725L18.8392 15.9483C18.9458 15.5708 19.2283 15.1667 19.67 14.8067C20.1181 14.4445 20.6396 14.184 21.1983 14.0433C21.8658 13.88 22.435 13.965 22.81 14.2233C23.1375 14.4483 23.4667 14.9083 23.4975 15.8517V15.8667L23.5 16C23.5084 17.91 22.7843 19.7506 21.4767 21.143C20.1692 22.5353 18.3776 23.3735 16.4708 23.485Z" fill="#E8E8E2"/>
</svg>
