<svg width="28" height="28" viewBox="0 0 28 28" fill="none" xmlns="http://www.w3.org/2000/svg">
<g opacity="0.8">
<path d="M25.1278 9.41152C25.1142 8.47146 24.94 7.53885 24.6067 6.65964C24.0233 5.15827 22.8354 3.97109 21.3315 3.38991C20.462 3.06332 19.5428 2.88822 18.6123 2.86835C17.4157 2.81495 17.0363 2.80005 13.9987 2.80005C10.9612 2.80005 10.5718 2.80005 9.38391 2.86835C8.45472 2.88822 7.53548 3.06332 6.666 3.38991C5.16214 3.97109 3.97298 5.15827 3.39084 6.65964C3.06369 7.52767 2.88706 8.44538 2.86965 9.37302C2.81616 10.5689 2.79999 10.9477 2.79999 13.9802C2.79999 17.0127 2.79999 17.4002 2.86965 18.5873C2.8883 19.5162 3.06369 20.4327 3.39084 21.3032C3.97422 22.8033 5.16214 23.9905 6.66725 24.5717C7.533 24.9095 8.45223 25.1007 9.38515 25.1305C10.583 25.1839 10.9624 25.2001 14 25.2001C17.0376 25.2001 17.4269 25.2001 18.6148 25.1305C19.544 25.1119 20.4632 24.9368 21.334 24.6102C22.8378 24.0278 24.0258 22.8406 24.6091 21.3405C24.9363 20.4712 25.1117 19.5547 25.1303 18.6246C25.1838 17.43 25.2 17.0512 25.2 14.0174C25.1975 10.9849 25.1975 10.5999 25.1278 9.41152ZM13.9913 19.7149C10.8144 19.7149 8.24077 17.1456 8.24077 13.974C8.24077 10.8024 10.8144 8.23302 13.9913 8.23302C17.1657 8.23302 19.7418 10.8024 19.7418 13.974C19.7418 17.1456 17.1657 19.7149 13.9913 19.7149ZM19.9707 9.35936C19.2281 9.35936 18.6298 8.7608 18.6298 8.02067C18.6298 7.28055 19.2281 6.68199 19.9707 6.68199C20.7108 6.68199 21.3103 7.28055 21.3103 8.02067C21.3103 8.7608 20.7108 9.35936 19.9707 9.35936Z" fill="#E8E8E2"/>
<path d="M13.9931 17.4789C15.928 17.4789 17.4966 15.9104 17.4966 13.9754C17.4966 12.0405 15.928 10.4719 13.9931 10.4719C12.0581 10.4719 10.4896 12.0405 10.4896 13.9754C10.4896 15.9104 12.0581 17.4789 13.9931 17.4789Z" fill="#E8E8E2"/>
</g>
</svg>
