<svg width="100" height="100" viewBox="0 0 100 100" fill="none" xmlns="http://www.w3.org/2000/svg">
<path d="M100 50C100 77.6142 77.6142 100 50 100C22.3858 100 0 77.6142 0 50C0 22.3858 22.3858 0 50 0C77.6142 0 100 22.3858 100 50Z" fill="#FDC152"/>
<path d="M78.6682 53.6929C78.9928 51.1536 80.9513 49.8393 83.4748 50.162C85.9982 50.4846 87.5631 52.2493 87.2384 54.7886C86.9138 57.3279 84.9553 58.6422 82.4318 58.3196C79.9084 57.9969 78.3435 56.2322 78.6682 53.6929ZM80.0331 53.8674C79.8302 55.4545 80.9785 56.4401 82.6449 56.6531C84.3272 56.8682 85.6706 56.2012 85.8735 54.6141C86.0764 53.027 84.944 52.0435 83.2617 51.8284C81.5953 51.6153 80.236 52.2803 80.0331 53.8674Z" fill="#010101"/>
<path d="M84.8019 64.112C84.7058 64.3835 84.6213 64.5743 84.5111 64.7898L83.0178 64.2613L83.0285 64.2311C83.8241 62.7985 83.2309 61.2138 81.5868 60.6319L77.6501 59.2385L78.2107 57.6548L85.9182 60.3828L85.3576 61.9665L83.9096 61.454L83.8989 61.4842C84.7201 62.2331 85.1596 63.1015 84.8019 64.112Z" fill="#010101"/>
<path d="M80.6857 71.3103L79.7995 72.7376L73.3292 68.7202C71.3311 67.4796 71.1987 65.7212 72.4224 63.7502C73.6631 61.752 75.3934 61.3009 76.6552 61.8772L75.7606 63.3181C75.0645 63.0742 74.2985 63.2766 73.598 64.4048C72.8553 65.601 73.0192 66.5503 74.2698 67.3267L75.1125 67.85L75.1294 67.8228C74.8408 67.1351 74.7209 66.1755 75.4045 65.0745C76.4848 63.3346 78.5048 62.7808 80.6933 64.1396C82.8954 65.5069 83.2813 67.5545 82.201 69.2944C81.5174 70.3954 80.6042 70.7136 79.887 70.7768L79.8701 70.8039L80.6857 71.3103ZM76.4047 66.0722C75.6873 67.2276 76.0181 68.3934 77.4862 69.3049C78.9542 70.2164 80.1458 69.9958 80.8632 68.8404C81.6397 67.5899 81.0985 66.3687 79.8071 65.5669C78.5294 64.7735 77.1812 64.8216 76.4047 66.0722Z" fill="#010101"/>
<path d="M73.3088 76.3304C73.7166 76.7595 74.2804 76.8418 75.0922 76.0702C76.0664 75.1444 76.1394 74.5011 75.4699 73.6806L76.6529 72.5563C77.6751 73.748 77.7931 75.3354 76.0071 77.0328C74.6965 78.2784 73.2484 78.7055 71.7493 77.1282L69.0709 74.31C68.6741 73.8925 68.3719 73.7603 67.9405 74.2586L67.3893 73.6787C67.5685 73.3098 67.7436 73.0992 67.9756 72.8788C68.625 72.2615 69.147 72.2069 69.8141 72.6766L69.8373 72.6545C69.7124 71.7799 70.0434 70.7811 70.9596 69.9103C72.1658 68.764 73.5694 68.7544 74.5173 69.7518C75.7518 71.0508 75.175 72.3716 73.966 74.0724C73.2151 75.1171 72.7687 75.7621 73.3088 76.3304ZM71.6077 71.1264C70.5987 72.0854 70.3768 73.2454 71.2917 74.208L72.1404 75.1011C72.2053 74.7745 72.5485 74.1834 73.0066 73.5274C73.8062 72.3481 73.9713 71.6393 73.3982 71.0362C72.8801 70.4911 72.2688 70.4982 71.6077 71.1264Z" fill="#010101"/>
<path d="M67.4447 83.1919C66.1111 83.9211 64.636 83.7248 63.7379 82.0823L61.0281 77.1268L62.5162 76.3131L64.9957 80.8474C65.5253 81.8161 66.2702 82.2111 67.281 81.6584C68.418 81.0366 68.7719 79.9496 68.1885 78.8827L65.8011 74.5168L67.2751 73.7108L71.1978 80.8843L69.7238 81.6903L69.2171 80.7638L69.189 80.7792C69.1171 81.5479 68.6801 82.5163 67.4447 83.1919Z" fill="#010101"/>
<path d="M62.2875 86.6196C62.7289 86.4764 63.2842 86.6326 63.462 87.1805C63.6398 87.7283 63.2771 88.1656 62.8358 88.3089C62.364 88.462 61.8288 88.3161 61.651 87.7682C61.4732 87.2203 61.8158 86.7727 62.2875 86.6196ZM62.6541 85.054L61.0562 85.5726L58.5323 77.7959L60.1303 77.2773L62.6541 85.054Z" fill="#010101"/>
<path d="M52.5935 84.173C52.7625 84.9902 53.4141 85.9231 54.8424 85.7405C56.4771 85.5315 56.9969 84.0456 56.8021 82.522C56.6073 80.9984 55.7463 79.689 54.0958 79.9C52.6674 80.0826 52.2694 81.1336 52.3216 82.0463L50.6552 82.2594C50.5427 80.3704 51.8104 78.805 53.9213 78.5351C56.3495 78.2247 58.1439 79.7696 58.4685 82.3089C58.7932 84.8483 57.4452 86.7949 55.0328 87.1034C52.922 87.3732 51.3688 86.2007 50.9271 84.3861L52.5935 84.173Z" fill="#010101"/>
<path d="M36.3831 86.6593C37.4074 87.0293 37.8379 87.0463 38.1144 86.1604L38.3813 85.3051L36.9456 84.8571L37.3555 83.5435L38.7912 83.9916L40.8169 77.5003L42.4359 78.0056L40.4102 84.4968L41.5251 84.8448L41.1152 86.1583L40.0003 85.8103L39.6905 86.8031C39.1757 88.4527 38.292 88.8138 37.009 88.4134C36.6119 88.2895 36.2749 88.1341 35.9732 87.9729L36.3831 86.6593Z" fill="#010101"/>
<path d="M36.2615 75.2179C38.5031 76.4545 39.0042 78.7592 37.7754 80.9867C36.5466 83.2143 34.3298 84.0197 32.0882 82.7832C29.8467 81.5467 29.3456 79.242 30.5744 77.0144C31.8031 74.7869 34.0199 73.9814 36.2615 75.2179ZM35.5969 76.4228C34.1959 75.65 32.8568 76.3549 32.0454 77.8259C31.2262 79.3109 31.3519 80.8056 32.7529 81.5784C34.1539 82.3512 35.4852 81.6603 36.3044 80.1753C37.1158 78.7042 36.9978 77.1956 35.5969 76.4228Z" fill="#010101"/>
<path d="M30.3165 70.8576C32.1722 72.6212 32.0737 74.9777 30.3211 76.8217C28.5686 78.6658 26.2201 78.884 24.3645 77.1204C22.5088 75.3568 22.6073 73.0003 24.3599 71.1563C26.1124 69.3122 28.4609 69.094 30.3165 70.8576ZM29.3686 71.855C28.2088 70.7528 26.735 71.0958 25.5776 72.3136C24.4093 73.543 24.1526 75.0208 25.3124 76.123C26.4722 77.2252 27.935 76.8938 29.1034 75.6644C30.2607 74.4466 30.5284 72.9573 29.3686 71.855Z" fill="#010101"/>
<path d="M14.6384 69.4648L13.7733 68.0247L23.58 62.1337L24.4451 63.5738L23.6358 64.0599L23.6523 64.0873C24.3548 64.1693 25.3017 64.5338 25.9526 65.6173C27.0319 67.414 26.4321 69.5848 24.1279 70.969C21.8237 72.3532 19.6255 71.8631 18.5462 70.0664C17.8953 68.9829 17.9908 67.9923 18.3032 67.3006L18.2868 67.2732L14.6384 69.4648ZM24.6247 66.079C23.9162 64.8994 22.5057 64.7575 20.9558 65.6885C19.3922 66.6278 18.8688 67.9314 19.5774 69.111C20.3354 70.3728 21.8912 70.3528 23.2628 69.5289C24.6343 68.7049 25.3827 67.3408 24.6247 66.079Z" fill="#010101"/>
<path d="M21.4023 51.1726C21.5011 53.7307 19.7863 55.3501 17.2442 55.4482C14.7021 55.5464 12.8675 54.0641 12.7687 51.506C12.67 48.9479 14.3848 47.3285 16.9269 47.2304C19.469 47.1322 21.3035 48.6145 21.4023 51.1726ZM20.0273 51.2257C19.9656 49.6269 18.6704 48.8443 16.9917 48.9091C15.2969 48.9746 14.082 49.8541 14.1437 51.4529C14.2054 53.0517 15.4846 53.8349 17.1794 53.7695C18.8581 53.7047 20.0891 52.8245 20.0273 51.2257Z" fill="#010101"/>
<path d="M13.6517 41.7502C13.7024 41.4667 13.7548 41.2648 13.8285 41.0342L15.3878 41.3131L15.3821 41.3446C14.8299 42.8875 15.6727 44.3548 17.3894 44.6619L21.5002 45.3972L21.2044 47.0509L13.1561 45.6113L13.4519 43.9576L14.9639 44.228L14.9695 44.1965C14.0376 43.591 13.4629 42.8055 13.6517 41.7502Z" fill="#010101"/>
<path d="M16.5203 34.0154L17.1632 32.4633L24.1995 35.3776C26.3725 36.2776 26.7885 37.9912 25.9007 40.1346C25.0007 42.3076 23.3665 43.0335 22.0279 42.6696L22.6769 41.1027C23.4033 41.2304 24.1263 40.9064 24.6345 39.6794C25.1733 38.3786 24.8575 37.4685 23.4975 36.9052L22.581 36.5256L22.5688 36.5552C22.9652 37.187 23.2392 38.1144 22.7432 39.3118C21.9596 41.2039 20.0562 42.0781 17.6762 41.0923C15.2815 40.1005 14.5684 38.1426 15.3521 36.2505C15.8481 35.0531 16.6975 34.591 17.395 34.4123L17.4073 34.3827L16.5203 34.0154ZM21.5944 38.4896C22.1148 37.2331 21.5993 36.1363 20.0028 35.4751C18.4063 34.8139 17.2663 35.2249 16.7459 36.4814C16.1826 37.8413 16.9148 38.9586 18.3191 39.5402C19.7086 40.1157 21.0312 39.8495 21.5944 38.4896Z" fill="#010101"/>
<path d="M22.9864 27.8512C22.5154 27.4926 21.9457 27.5012 21.2672 28.3923C20.453 29.4616 20.4835 30.1083 21.2752 30.8116L20.2865 32.1101C19.0874 31.0965 18.7179 29.5482 20.2107 27.5878C21.306 26.1493 22.6676 25.4969 24.3988 26.8151L27.4921 29.1705C27.9504 29.5195 28.2698 29.6018 28.6163 29.0411L29.2528 29.5258C29.1347 29.9185 28.9954 30.1543 28.8015 30.4089C28.2587 31.1218 27.7521 31.2589 27.0187 30.9015L26.9993 30.927C27.262 31.7705 27.0944 32.8093 26.3286 33.815C25.3205 35.1389 23.9364 35.372 22.8417 34.5384C21.4159 33.4527 21.7749 32.0569 22.6974 30.1852C23.2722 29.0342 23.6102 28.3262 22.9864 27.8512ZM25.495 32.7177C26.3383 31.6102 26.3725 30.4296 25.3159 29.6251L24.3358 28.8787C24.3237 29.2114 24.0791 29.8497 23.7314 30.5703C23.13 31.862 23.0799 32.5881 23.7418 33.0921C24.3401 33.5477 24.9425 33.4433 25.495 32.7177Z" fill="#010101"/>
<path d="M27.5649 20.1931C28.7606 19.2547 30.2479 19.2062 31.4036 20.6788L34.8904 25.122L33.5562 26.1691L30.3657 22.1035C29.6842 21.235 28.8845 20.9676 27.9783 21.6788C26.9587 22.4789 26.7882 23.6093 27.5389 24.5659L30.6109 28.4804L29.2893 29.5176L24.2418 23.0857L25.5634 22.0485L26.2153 22.8792L26.2405 22.8595C26.1852 22.0893 26.4572 21.0623 27.5649 20.1931Z" fill="#010101"/>
<path d="M32.1689 15.9042C31.7569 16.1178 31.1835 16.0545 30.9184 15.5432C30.6534 15.0318 30.9396 14.541 31.3516 14.3275C31.7919 14.0992 32.3438 14.1556 32.6088 14.6669C32.8739 15.1783 32.6092 15.676 32.1689 15.9042ZM32.0634 17.5087L33.555 16.7356L37.3176 23.9944L35.826 24.7675L32.0634 17.5087Z" fill="#010101"/>
<path d="M42.1393 16.7226C41.8391 15.944 41.044 15.13 39.6646 15.5434C38.086 16.0164 37.8158 17.5673 38.2567 19.0386C38.6976 20.51 39.7608 21.6612 41.3548 21.1836C42.7342 20.7702 42.9552 19.6684 42.7547 18.7764L44.364 18.2941C44.7834 20.1394 43.7882 21.8908 41.7498 22.5016C39.4048 23.2044 37.3823 21.9731 36.6474 19.5209C35.9125 17.0686 36.9246 14.928 39.2543 14.2299C41.2927 13.619 43.0165 14.5222 43.7486 16.2404L42.1393 16.7226Z" fill="#010101"/>
<path d="M57.6609 11.6233C56.5899 11.4254 56.1625 11.4788 56.0342 12.3979L55.9103 13.2853L57.3999 13.4932L57.2097 14.856L55.7201 14.6481L54.7801 21.3828L53.1004 21.1483L54.0404 14.4136L52.8836 14.2522L53.0738 12.8894L54.2306 13.0508L54.3744 12.0208C54.6132 10.3094 55.4262 9.80897 56.7573 9.99476C57.1693 10.0523 57.5272 10.1507 57.8511 10.2605L57.6609 11.6233Z" fill="#010101"/>
<path d="M59.6757 22.8774C57.2624 22.0232 56.392 19.8312 57.2408 17.4329C58.0896 15.0347 60.1453 13.8783 62.5586 14.7325C64.9718 15.5867 65.8423 17.7787 64.9935 20.177C64.1447 22.5752 62.089 23.7316 59.6757 22.8774ZM60.1348 21.5802C61.6432 22.1141 62.8492 21.2001 63.4098 19.6164C63.9757 18.0176 63.6077 16.5635 62.0994 16.0297C60.5911 15.4958 59.3904 16.3947 58.8245 17.9935C58.264 19.5772 58.6265 21.0464 60.1348 21.5802Z" fill="#010101"/>
<path d="M66.1563 26.1284C64.0377 24.6914 63.7502 22.3504 65.1782 20.245C66.6062 18.1396 68.8875 17.541 71.0062 18.9779C73.1248 20.4149 73.4123 22.7559 71.9843 24.8613C70.5563 26.9667 68.275 27.5654 66.1563 26.1284ZM66.9287 24.9896C68.2529 25.8877 69.6509 25.3087 70.594 23.9183C71.546 22.5147 71.5579 21.0148 70.2338 20.1167C68.9096 19.2186 67.5205 19.7844 66.5685 21.188C65.6255 22.5784 65.6046 24.0915 66.9287 24.9896Z" fill="#010101"/>
<path d="M82.0232 25.0949L83.1078 26.3779L74.3712 33.7634L73.2866 32.4804L74.0076 31.8709L73.9869 31.8465C73.2803 31.8781 72.2873 31.67 71.4713 30.7047C70.1182 29.104 70.3626 26.8652 72.4153 25.1299C74.4681 23.3945 76.7164 23.5262 78.0696 25.1268C78.8856 26.0921 78.95 27.0853 78.7523 27.818L78.773 27.8425L82.0232 25.0949ZM72.7081 30.0363C73.5964 31.0872 75.0114 31.0014 76.3922 29.8342C77.7851 28.6566 78.093 27.2859 77.2047 26.2351C76.2544 25.111 74.7218 25.3799 73.4999 26.4128C72.278 27.4458 71.7578 28.9122 72.7081 30.0363Z" fill="#010101"/>
<path d="M55 46C46 48 43.9 54.17 41.82 59.34L43.71 60L44.66 57.7C45.14 57.87 45.64 58 46 58C57 58 60 41 60 41C59 43 52 43.25 47 44.25C42 45.25 40 49.5 40 51.5C40 53.5 41.75 55.25 41.75 55.25C45 46 55 46 55 46Z" fill="#010101"/>
</svg>
