<svg width="16" height="17" viewBox="0 0 16 17" fill="none" xmlns="http://www.w3.org/2000/svg">
<path d="M1.70005 0.900024C1.46135 0.900024 1.23244 0.994846 1.06365 1.16363C0.89487 1.33241 0.800049 1.56133 0.800049 1.80002C0.800049 2.03872 0.89487 2.26764 1.06365 2.43642C1.23244 2.6052 1.46135 2.70002 1.70005 2.70002H2.79805L3.07255 3.79982C3.07528 3.81249 3.07828 3.82509 3.08155 3.83762L4.30375 8.72462L3.50005 9.52742C2.36605 10.6614 3.16885 12.6 4.77265 12.6H12.5C12.7387 12.6 12.9677 12.5052 13.1364 12.3364C13.3052 12.1676 13.4 11.9387 13.4 11.7C13.4 11.4613 13.3052 11.2324 13.1364 11.0636C12.9677 10.8948 12.7387 10.8 12.5 10.8H4.77265L5.67265 9.90002H11.6C11.7671 9.89993 11.9309 9.85333 12.073 9.76543C12.2151 9.67752 12.33 9.5518 12.4046 9.40232L15.1046 4.00232C15.1732 3.86515 15.2056 3.71273 15.1987 3.55953C15.1918 3.40633 15.1458 3.25744 15.0652 3.12698C14.9846 2.99652 14.872 2.88882 14.7381 2.81409C14.6042 2.73937 14.4534 2.70011 14.3 2.70002H4.65205L4.37305 1.58132C4.32429 1.3867 4.21191 1.21395 4.05374 1.09051C3.89557 0.967076 3.70068 0.90003 3.50005 0.900024H1.70005ZM13.4 14.85C13.4 15.2081 13.2578 15.5514 13.0046 15.8046C12.7515 16.0578 12.4081 16.2 12.05 16.2C11.692 16.2 11.3486 16.0578 11.0955 15.8046C10.8423 15.5514 10.7 15.2081 10.7 14.85C10.7 14.492 10.8423 14.1486 11.0955 13.8954C11.3486 13.6423 11.692 13.5 12.05 13.5C12.4081 13.5 12.7515 13.6423 13.0046 13.8954C13.2578 14.1486 13.4 14.492 13.4 14.85ZM4.85005 16.2C5.20809 16.2 5.55147 16.0578 5.80464 15.8046C6.05782 15.5514 6.20005 15.2081 6.20005 14.85C6.20005 14.492 6.05782 14.1486 5.80464 13.8954C5.55147 13.6423 5.20809 13.5 4.85005 13.5C4.49201 13.5 4.14863 13.6423 3.89545 13.8954C3.64228 14.1486 3.50005 14.492 3.50005 14.85C3.50005 15.2081 3.64228 15.5514 3.89545 15.8046C4.14863 16.0578 4.49201 16.2 4.85005 16.2Z" fill="#E8E8E2"/>
</svg>
