<svg width="28" height="28" viewBox="0 0 28 28" fill="none" xmlns="http://www.w3.org/2000/svg">
<g opacity="0.8">
<path fill-rule="evenodd" clip-rule="evenodd" d="M21.21 5.24986C20.02 5.17986 17.57 5.10986 13.86 5.10986H13.37C9.80004 5.10986 7.42007 5.17986 6.23007 5.31986C4.62007 5.45986 3.50004 5.87986 2.87004 6.43986C2.31004 6.92986 1.89005 7.83986 1.75005 9.02986C1.68005 9.79986 1.61005 11.4099 1.61005 13.8599V14.2099C1.61005 16.5199 1.68004 18.1299 1.82004 18.8999C2.03004 20.0199 2.38007 20.8599 3.08007 21.3499C3.78007 21.9099 4.97005 22.2599 6.65005 22.3999C7.84005 22.4699 10.2901 22.5399 14.0001 22.5399H14.4901C18.0601 22.5399 20.4401 22.4699 21.6301 22.3299C23.2401 22.1899 24.3601 21.7699 24.9901 21.2099C25.5501 20.7199 25.97 19.8099 26.11 18.6199C26.18 17.8499 26.2501 16.2399 26.2501 13.7899V13.4399C26.2501 11.1299 26.1801 9.51986 26.0401 8.74986C25.8301 7.62986 25.4801 6.78986 24.7801 6.29986C24.0801 5.73986 22.89 5.38986 21.21 5.24986ZM18.4801 13.8599L10.7801 18.4799V9.23986L18.4801 13.8599Z" fill="#E8E8E2"/>
</g>
</svg>
