<svg width="32" height="32" viewBox="0 0 32 32" fill="none" xmlns="http://www.w3.org/2000/svg">
<path d="M32 16C32 24.8366 24.8366 32 16 32C7.16344 32 0 24.8366 0 16C0 7.16344 7.16344 0 16 0C24.8366 0 32 7.16344 32 16Z" fill="#6D8434"/>
<path d="M17.4199 5.33051C16.9777 4.66381 16.3834 4.10994 15.6852 3.71384C13.766 2.62133 11.2932 2.81331 9.01123 4.08138C4.77446 6.43692 2 10.8651 2 16.1066C2 23.1038 7.10348 28.7533 13.7685 29.8231C14.4965 29.9393 15.241 29.9999 15.9996 29.9999C17.849 30.0064 19.6812 29.6479 21.3898 28.9452C23.0983 28.2426 24.649 27.2099 25.9517 25.9071C27.2544 24.6043 28.2831 23.0574 28.9779 21.3565C29.6727 19.6556 30.0199 17.8345 29.9991 15.9993C29.9698 13.5591 28.9835 10.5645 27.4245 8.17106C25.8718 5.78647 23.4842 3.61406 20.5176 3.64185C19.0693 3.64438 18.0804 4.43503 17.4199 5.33178V5.33051ZM25.8896 10.5658C25.3581 10.4809 24.8175 10.4669 24.2822 10.5241L22.8059 8.06117L20.6194 9.34946L21.7547 11.244C21.2797 11.4658 20.826 11.73 20.3992 12.0334C20.3917 12.0089 20.3841 11.9845 20.3763 11.9601C20.0365 10.9371 19.3798 10.0972 18.5042 9.26231L18.5093 9.23705C18.5971 8.82909 18.7371 8.30241 18.9471 7.79089C19.4218 6.63396 19.9729 6.16537 20.5252 6.16537H20.5392C22.1823 6.14769 23.894 7.39935 25.2876 9.53891C25.504 9.87109 25.7051 10.2134 25.8909 10.5645L25.8896 10.5658ZM18.0486 14.351C17.6286 14.3611 17.1972 14.4079 16.7759 14.4988C16.4324 13.9281 15.9719 13.4355 15.4243 13.0526C14.4189 12.3517 13.0418 12.0043 11.5528 12.5563C11.4164 12.4783 11.2789 12.4021 11.1404 12.3277L15.255 8.32515L13.4733 6.52155L8.59252 11.2693C7.56164 10.9724 6.59822 10.8664 5.73279 10.9851C6.72872 9.00114 8.30587 7.36243 10.2572 6.2841C11.9931 5.31915 13.486 5.37219 14.4202 5.90393C15.311 6.4104 16.0505 7.55975 15.8647 9.61343L15.8074 10.2487L16.2885 10.6718C17.3346 11.5901 17.7699 12.1837 17.9582 12.7508C18.0906 13.1486 18.1339 13.6298 18.0486 14.351ZM14.4723 15.6204C13.3855 16.5234 12.6562 17.7903 12.2324 19.1594L8.44743 15.0356L6.56513 16.7382L11.7679 22.4066C11.7615 23.9121 11.9562 25.453 12.2388 26.8461C9.98622 26.0786 8.03266 24.6299 6.6527 22.7036C5.27274 20.7772 4.53577 18.4702 4.54537 16.1066C4.54537 14.7931 4.91318 14.077 5.34589 13.7637C5.75443 13.4657 6.65167 13.2219 8.48943 13.8951C9.15378 14.1388 9.92248 14.5127 10.8019 15.0558L11.4408 15.4499L12.0975 15.0836C12.8904 14.6415 13.4962 14.7981 13.9607 15.1215C14.1643 15.2629 14.3387 15.4398 14.4723 15.6204ZM16.7186 27.4511L25.9991 17.3002L24.1142 15.6027L20.3827 19.6835L20.3916 18.4028L17.8462 18.3851L17.817 22.49L14.6569 25.9469C14.4176 24.6573 14.2751 23.2718 14.3209 21.9721C14.4023 19.7555 15.2945 17.9342 16.6143 17.2131C17.1615 16.9137 18.1275 16.7963 18.8911 16.9301L20.0238 17.1259L20.3356 16.0283C20.4985 15.4562 20.93 14.8436 21.6045 14.298C22.2888 13.7491 23.0853 13.3543 23.9386 13.1411C24.958 12.8935 25.8273 13.0223 26.4 13.4139C26.9001 13.7549 27.4028 14.4521 27.4499 15.8818V15.9046L27.4537 16.1066C27.4665 19.0016 26.3607 21.7912 24.3637 23.9015C22.3668 26.0118 19.6307 27.2821 16.7186 27.4511Z" fill="#E8E8E2"/>
</svg>
